<svg width="29" height="29" viewBox="0 0 29 29" fill="none" xmlns="http://www.w3.org/2000/svg">
<path d="M8.36364 8.36364V4.68182C8.36364 3.70534 8.75154 2.76885 9.44202 2.07838C10.1325 1.38791 11.069 1 12.0455 1H16.9545C17.931 1 18.8675 1.38791 19.558 2.07838C20.2485 2.76885 20.6364 3.70534 20.6364 4.68182C20.6364 5.6583 20.2485 6.59478 19.558 7.28526C18.8675 7.97573 17.931 8.36364 16.9545 8.36364H1V21.8636C1 23.4911 1.64651 25.0519 2.7973 26.2027C3.94809 27.3535 5.5089 28 7.13636 28H21.8636C23.4911 28 25.0519 27.3535 26.2027 26.2027C27.3535 25.0519 28 23.4911 28 21.8636V8.36364H23.5" stroke="black" stroke-width="1.5"/>
</svg>
